<svg width="256" height="256" viewBox="0 0 256 256" fill="none" xmlns="http://www.w3.org/2000/svg">
  <rect width="256" height="256" rx="64" fill="#FFF8EF"/>
  <circle cx="128" cy="128" r="108" fill="url(#bg)"/>
  <path d="M72 86C87 72 103 65 124 64C145 63 165 71 184 85" stroke="#8B5A2B" stroke-width="10" stroke-linecap="round"/>
  <path d="M79 98C86 76 95 61 108 52" stroke="#88A04B" stroke-width="8" stroke-linecap="round"/>
  <path d="M177 98C170 76 161 61 148 52" stroke="#88A04B" stroke-width="8" stroke-linecap="round"/>
  <path d="M67 99C54 88 48 73 47 58C62 60 74 67 83 80" fill="#A6C36F" stroke="#6B8E23" stroke-width="4" stroke-linejoin="round"/>
  <path d="M189 99C202 88 208 73 209 58C194 60 182 67 173 80" fill="#A6C36F" stroke="#6B8E23" stroke-width="4" stroke-linejoin="round"/>
  <path d="M90 92L128 62L166 92" stroke="#6C3E18" stroke-width="10" stroke-linecap="round" stroke-linejoin="round"/>
  <path d="M103 91V113H153V91" stroke="#6C3E18" stroke-width="8" stroke-linecap="round"/>
  <path d="M117 93V113" stroke="#6C3E18" stroke-width="6" stroke-linecap="round"/>
  <path d="M139 93V113" stroke="#6C3E18" stroke-width="6" stroke-linecap="round"/>
  <path d="M83 116C88 101 103 91 120 91H136C153 91 168 101 173 116L182 158C186 176 172 192 153 192H103C84 192 70 176 74 158L83 116Z" fill="#D8A15B" stroke="#8B5A2B" stroke-width="6"/>
  <path d="M86 128H171" stroke="#A86E34" stroke-width="4"/>
  <path d="M82 143H174" stroke="#A86E34" stroke-width="4"/>
  <path d="M79 158H177" stroke="#A86E34" stroke-width="4"/>
  <path d="M94 115L88 189" stroke="#A86E34" stroke-width="4"/>
  <path d="M111 112L106 191" stroke="#A86E34" stroke-width="4"/>
  <path d="M128 111V192" stroke="#A86E34" stroke-width="4"/>
  <path d="M145 112L150 191" stroke="#A86E34" stroke-width="4"/>
  <path d="M162 115L168 189" stroke="#A86E34" stroke-width="4"/>
  <ellipse cx="103" cy="135" rx="18" ry="13" fill="#F5E4B8" stroke="#C7A97A" stroke-width="3"/>
  <ellipse cx="127" cy="133" rx="18" ry="13" fill="#F2C55C" stroke="#C69A3A" stroke-width="3"/>
  <ellipse cx="151" cy="135" rx="18" ry="13" fill="#E6C26A" stroke="#B38A31" stroke-width="3"/>
  <ellipse cx="117" cy="151" rx="17" ry="12" fill="#F3D877" stroke="#C6A846" stroke-width="3"/>
  <ellipse cx="141" cy="151" rx="17" ry="12" fill="#F8E09B" stroke="#C8A55C" stroke-width="3"/>
  <path d="M157 123C166 114 182 117 189 131C179 141 165 140 157 123Z" fill="#F4C94D" stroke="#C79A21" stroke-width="4"/>
  <path d="M164 128C176 119 193 126 196 142C183 149 169 143 164 128Z" fill="#F4D14E" stroke="#C79A21" stroke-width="4"/>
  <path d="M48 177C57 166 73 163 85 170L69 188L48 177Z" fill="#9B6B3E" stroke="#70411F" stroke-width="4" stroke-linejoin="round"/>
  <path d="M70 176C77 164 92 158 105 163L94 187L70 176Z" fill="#A37241" stroke="#70411F" stroke-width="4" stroke-linejoin="round"/>
  <ellipse cx="161" cy="190" rx="17" ry="13" transform="rotate(-20 161 190)" fill="#E8C66C" stroke="#B38A31" stroke-width="4"/>
  <ellipse cx="151" cy="200" rx="12" ry="9" transform="rotate(-20 151 200)" fill="#F6E3A0" stroke="#C8A55C" stroke-width="3"/>
  <defs>
    <radialGradient id="bg" cx="0" cy="0" r="1" gradientUnits="userSpaceOnUse" gradientTransform="translate(128 104) rotate(90) scale(132)">
      <stop stop-color="#FFFDF8"/>
      <stop offset="1" stop-color="#F8E9D3"/>
    </radialGradient>
  </defs>
</svg>
